<?xml version="1.0" encoding="utf-8" standalone="no"?>
<!DOCTYPE svg PUBLIC "-//W3C//DTD SVG 1.1//EN"
  "http://www.w3.org/Graphics/SVG/1.1/DTD/svg11.dtd">
<svg xmlns:xlink="http://www.w3.org/1999/xlink" width="720pt" height="432pt" viewBox="0 0 720 432" xmlns="http://www.w3.org/2000/svg" version="1.1">
 <metadata>
  <rdf:RDF xmlns:dc="http://purl.org/dc/elements/1.1/" xmlns:cc="http://creativecommons.org/ns#" xmlns:rdf="http://www.w3.org/1999/02/22-rdf-syntax-ns#">
   <cc:Work>
    <dc:type rdf:resource="http://purl.org/dc/dcmitype/StillImage"/>
    <dc:date>2024-05-16T13:12:56.620084</dc:date>
    <dc:format>image/svg+xml</dc:format>
    <dc:creator>
     <cc:Agent>
      <dc:title>Matplotlib v3.5.3, https://matplotlib.org/</dc:title>
     </cc:Agent>
    </dc:creator>
   </cc:Work>
  </rdf:RDF>
 </metadata>
 <defs>
  <style type="text/css">*{stroke-linejoin: round; stroke-linecap: butt}</style>
 </defs>
 <g id="figure_1">
  <g id="patch_1">
   <path d="M 0 432 
L 720 432 
L 720 0 
L 0 0 
z
" style="fill: #ffffff"/>
  </g>
  <g id="axes_1">
   <g id="patch_2">
    <path d="M 90 384.48 
L 648 384.48 
L 648 51.84 
L 90 51.84 
z
" style="fill: #ffffff"/>
   </g>
   <g id="matplotlib.axis_1">
    <g id="xtick_1">
     <g id="line2d_1">
      <path d="M 105.011132 384.48 
L 105.011132 51.84 
" clip-path="url(#pa327e8515a)" style="fill: none; stroke: #b0b0b0; stroke-width: 0.8; stroke-linecap: square"/>
     </g>
     <g id="line2d_2">
      <defs>
       <path id="m87c7197ab1" d="M 0 0 
L 0 3.5 
" style="stroke: #000000; stroke-width: 0.8"/>
      </defs>
      <g>
       <use xlink:href="#m87c7197ab1" x="105.011132" y="384.48" style="stroke: #000000; stroke-width: 0.8"/>
      </g>
     </g>
     <g id="text_1">
      <!-- 0 -->
      <g transform="translate(101.829882 399.078438)scale(0.1 -0.1)">
       <defs>
        <path id="DejaVuSans-30" d="M 2034 4250 
Q 1547 4250 1301 3770 
Q 1056 3291 1056 2328 
Q 1056 1369 1301 889 
Q 1547 409 2034 409 
Q 2525 409 2770 889 
Q 3016 1369 3016 2328 
Q 3016 3291 2770 3770 
Q 2525 4250 2034 4250 
z
M 2034 4750 
Q 2819 4750 3233 4129 
Q 3647 3509 3647 2328 
Q 3647 1150 3233 529 
Q 2819 -91 2034 -91 
Q 1250 -91 836 529 
Q 422 1150 422 2328 
Q 422 3509 836 4129 
Q 1250 4750 2034 4750 
z
" transform="scale(0.015625)"/>
       </defs>
       <use xlink:href="#DejaVuSans-30"/>
      </g>
     </g>
    </g>
    <g id="xtick_2">
     <g id="line2d_3">
      <path d="M 208.536178 384.48 
L 208.536178 51.84 
" clip-path="url(#pa327e8515a)" style="fill: none; stroke: #b0b0b0; stroke-width: 0.8; stroke-linecap: square"/>
     </g>
     <g id="line2d_4">
      <g>
       <use xlink:href="#m87c7197ab1" x="208.536178" y="384.48" style="stroke: #000000; stroke-width: 0.8"/>
      </g>
     </g>
     <g id="text_2">
      <!-- 10 -->
      <g transform="translate(202.173678 399.078438)scale(0.1 -0.1)">
       <defs>
        <path id="DejaVuSans-31" d="M 794 531 
L 1825 531 
L 1825 4091 
L 703 3866 
L 703 4441 
L 1819 4666 
L 2450 4666 
L 2450 531 
L 3481 531 
L 3481 0 
L 794 0 
L 794 531 
z
" transform="scale(0.015625)"/>
       </defs>
       <use xlink:href="#DejaVuSans-31"/>
       <use xlink:href="#DejaVuSans-30" x="63.623047"/>
      </g>
     </g>
    </g>
    <g id="xtick_3">
     <g id="line2d_5">
      <path d="M 312.061224 384.48 
L 312.061224 51.84 
" clip-path="url(#pa327e8515a)" style="fill: none; stroke: #b0b0b0; stroke-width: 0.8; stroke-linecap: square"/>
     </g>
     <g id="line2d_6">
      <g>
       <use xlink:href="#m87c7197ab1" x="312.061224" y="384.48" style="stroke: #000000; stroke-width: 0.8"/>
      </g>
     </g>
     <g id="text_3">
      <!-- 20 -->
      <g transform="translate(305.698724 399.078438)scale(0.1 -0.1)">
       <defs>
        <path id="DejaVuSans-32" d="M 1228 531 
L 3431 531 
L 3431 0 
L 469 0 
L 469 531 
Q 828 903 1448 1529 
Q 2069 2156 2228 2338 
Q 2531 2678 2651 2914 
Q 2772 3150 2772 3378 
Q 2772 3750 2511 3984 
Q 2250 4219 1831 4219 
Q 1534 4219 1204 4116 
Q 875 4013 500 3803 
L 500 4441 
Q 881 4594 1212 4672 
Q 1544 4750 1819 4750 
Q 2544 4750 2975 4387 
Q 3406 4025 3406 3419 
Q 3406 3131 3298 2873 
Q 3191 2616 2906 2266 
Q 2828 2175 2409 1742 
Q 1991 1309 1228 531 
z
" transform="scale(0.015625)"/>
       </defs>
       <use xlink:href="#DejaVuSans-32"/>
       <use xlink:href="#DejaVuSans-30" x="63.623047"/>
      </g>
     </g>
    </g>
    <g id="xtick_4">
     <g id="line2d_7">
      <path d="M 415.586271 384.48 
L 415.586271 51.84 
" clip-path="url(#pa327e8515a)" style="fill: none; stroke: #b0b0b0; stroke-width: 0.8; stroke-linecap: square"/>
     </g>
     <g id="line2d_8">
      <g>
       <use xlink:href="#m87c7197ab1" x="415.586271" y="384.48" style="stroke: #000000; stroke-width: 0.8"/>
      </g>
     </g>
     <g id="text_4">
      <!-- 30 -->
      <g transform="translate(409.223771 399.078438)scale(0.1 -0.1)">
       <defs>
        <path id="DejaVuSans-33" d="M 2597 2516 
Q 3050 2419 3304 2112 
Q 3559 1806 3559 1356 
Q 3559 666 3084 287 
Q 2609 -91 1734 -91 
Q 1441 -91 1130 -33 
Q 819 25 488 141 
L 488 750 
Q 750 597 1062 519 
Q 1375 441 1716 441 
Q 2309 441 2620 675 
Q 2931 909 2931 1356 
Q 2931 1769 2642 2001 
Q 2353 2234 1838 2234 
L 1294 2234 
L 1294 2753 
L 1863 2753 
Q 2328 2753 2575 2939 
Q 2822 3125 2822 3475 
Q 2822 3834 2567 4026 
Q 2313 4219 1838 4219 
Q 1578 4219 1281 4162 
Q 984 4106 628 3988 
L 628 4550 
Q 988 4650 1302 4700 
Q 1616 4750 1894 4750 
Q 2613 4750 3031 4423 
Q 3450 4097 3450 3541 
Q 3450 3153 3228 2886 
Q 3006 2619 2597 2516 
z
" transform="scale(0.015625)"/>
       </defs>
       <use xlink:href="#DejaVuSans-33"/>
       <use xlink:href="#DejaVuSans-30" x="63.623047"/>
      </g>
     </g>
    </g>
    <g id="xtick_5">
     <g id="line2d_9">
      <path d="M 519.111317 384.48 
L 519.111317 51.84 
" clip-path="url(#pa327e8515a)" style="fill: none; stroke: #b0b0b0; stroke-width: 0.8; stroke-linecap: square"/>
     </g>
     <g id="line2d_10">
      <g>
       <use xlink:href="#m87c7197ab1" x="519.111317" y="384.48" style="stroke: #000000; stroke-width: 0.8"/>
      </g>
     </g>
     <g id="text_5">
      <!-- 40 -->
      <g transform="translate(512.748817 399.078438)scale(0.1 -0.1)">
       <defs>
        <path id="DejaVuSans-34" d="M 2419 4116 
L 825 1625 
L 2419 1625 
L 2419 4116 
z
M 2253 4666 
L 3047 4666 
L 3047 1625 
L 3713 1625 
L 3713 1100 
L 3047 1100 
L 3047 0 
L 2419 0 
L 2419 1100 
L 313 1100 
L 313 1709 
L 2253 4666 
z
" transform="scale(0.015625)"/>
       </defs>
       <use xlink:href="#DejaVuSans-34"/>
       <use xlink:href="#DejaVuSans-30" x="63.623047"/>
      </g>
     </g>
    </g>
    <g id="xtick_6">
     <g id="line2d_11">
      <path d="M 622.636364 384.48 
L 622.636364 51.84 
" clip-path="url(#pa327e8515a)" style="fill: none; stroke: #b0b0b0; stroke-width: 0.8; stroke-linecap: square"/>
     </g>
     <g id="line2d_12">
      <g>
       <use xlink:href="#m87c7197ab1" x="622.636364" y="384.48" style="stroke: #000000; stroke-width: 0.8"/>
      </g>
     </g>
     <g id="text_6">
      <!-- 50 -->
      <g transform="translate(616.273864 399.078438)scale(0.1 -0.1)">
       <defs>
        <path id="DejaVuSans-35" d="M 691 4666 
L 3169 4666 
L 3169 4134 
L 1269 4134 
L 1269 2991 
Q 1406 3038 1543 3061 
Q 1681 3084 1819 3084 
Q 2600 3084 3056 2656 
Q 3513 2228 3513 1497 
Q 3513 744 3044 326 
Q 2575 -91 1722 -91 
Q 1428 -91 1123 -41 
Q 819 9 494 109 
L 494 744 
Q 775 591 1075 516 
Q 1375 441 1709 441 
Q 2250 441 2565 725 
Q 2881 1009 2881 1497 
Q 2881 1984 2565 2268 
Q 2250 2553 1709 2553 
Q 1456 2553 1204 2497 
Q 953 2441 691 2322 
L 691 4666 
z
" transform="scale(0.015625)"/>
       </defs>
       <use xlink:href="#DejaVuSans-35"/>
       <use xlink:href="#DejaVuSans-30" x="63.623047"/>
      </g>
     </g>
    </g>
    <g id="text_7">
     <!-- latency delay/T_round -->
     <g transform="translate(313.628125 412.756563)scale(0.1 -0.1)">
      <defs>
       <path id="DejaVuSans-6c" d="M 603 4863 
L 1178 4863 
L 1178 0 
L 603 0 
L 603 4863 
z
" transform="scale(0.015625)"/>
       <path id="DejaVuSans-61" d="M 2194 1759 
Q 1497 1759 1228 1600 
Q 959 1441 959 1056 
Q 959 750 1161 570 
Q 1363 391 1709 391 
Q 2188 391 2477 730 
Q 2766 1069 2766 1631 
L 2766 1759 
L 2194 1759 
z
M 3341 1997 
L 3341 0 
L 2766 0 
L 2766 531 
Q 2569 213 2275 61 
Q 1981 -91 1556 -91 
Q 1019 -91 701 211 
Q 384 513 384 1019 
Q 384 1609 779 1909 
Q 1175 2209 1959 2209 
L 2766 2209 
L 2766 2266 
Q 2766 2663 2505 2880 
Q 2244 3097 1772 3097 
Q 1472 3097 1187 3025 
Q 903 2953 641 2809 
L 641 3341 
Q 956 3463 1253 3523 
Q 1550 3584 1831 3584 
Q 2591 3584 2966 3190 
Q 3341 2797 3341 1997 
z
" transform="scale(0.015625)"/>
       <path id="DejaVuSans-74" d="M 1172 4494 
L 1172 3500 
L 2356 3500 
L 2356 3053 
L 1172 3053 
L 1172 1153 
Q 1172 725 1289 603 
Q 1406 481 1766 481 
L 2356 481 
L 2356 0 
L 1766 0 
Q 1100 0 847 248 
Q 594 497 594 1153 
L 594 3053 
L 172 3053 
L 172 3500 
L 594 3500 
L 594 4494 
L 1172 4494 
z
" transform="scale(0.015625)"/>
       <path id="DejaVuSans-65" d="M 3597 1894 
L 3597 1613 
L 953 1613 
Q 991 1019 1311 708 
Q 1631 397 2203 397 
Q 2534 397 2845 478 
Q 3156 559 3463 722 
L 3463 178 
Q 3153 47 2828 -22 
Q 2503 -91 2169 -91 
Q 1331 -91 842 396 
Q 353 884 353 1716 
Q 353 2575 817 3079 
Q 1281 3584 2069 3584 
Q 2775 3584 3186 3129 
Q 3597 2675 3597 1894 
z
M 3022 2063 
Q 3016 2534 2758 2815 
Q 2500 3097 2075 3097 
Q 1594 3097 1305 2825 
Q 1016 2553 972 2059 
L 3022 2063 
z
" transform="scale(0.015625)"/>
       <path id="DejaVuSans-6e" d="M 3513 2113 
L 3513 0 
L 2938 0 
L 2938 2094 
Q 2938 2591 2744 2837 
Q 2550 3084 2163 3084 
Q 1697 3084 1428 2787 
Q 1159 2491 1159 1978 
L 1159 0 
L 581 0 
L 581 3500 
L 1159 3500 
L 1159 2956 
Q 1366 3272 1645 3428 
Q 1925 3584 2291 3584 
Q 2894 3584 3203 3211 
Q 3513 2838 3513 2113 
z
" transform="scale(0.015625)"/>
       <path id="DejaVuSans-63" d="M 3122 3366 
L 3122 2828 
Q 2878 2963 2633 3030 
Q 2388 3097 2138 3097 
Q 1578 3097 1268 2742 
Q 959 2388 959 1747 
Q 959 1106 1268 751 
Q 1578 397 2138 397 
Q 2388 397 2633 464 
Q 2878 531 3122 666 
L 3122 134 
Q 2881 22 2623 -34 
Q 2366 -91 2075 -91 
Q 1284 -91 818 406 
Q 353 903 353 1747 
Q 353 2603 823 3093 
Q 1294 3584 2113 3584 
Q 2378 3584 2631 3529 
Q 2884 3475 3122 3366 
z
" transform="scale(0.015625)"/>
       <path id="DejaVuSans-79" d="M 2059 -325 
Q 1816 -950 1584 -1140 
Q 1353 -1331 966 -1331 
L 506 -1331 
L 506 -850 
L 844 -850 
Q 1081 -850 1212 -737 
Q 1344 -625 1503 -206 
L 1606 56 
L 191 3500 
L 800 3500 
L 1894 763 
L 2988 3500 
L 3597 3500 
L 2059 -325 
z
" transform="scale(0.015625)"/>
       <path id="DejaVuSans-20" transform="scale(0.015625)"/>
       <path id="DejaVuSans-64" d="M 2906 2969 
L 2906 4863 
L 3481 4863 
L 3481 0 
L 2906 0 
L 2906 525 
Q 2725 213 2448 61 
Q 2172 -91 1784 -91 
Q 1150 -91 751 415 
Q 353 922 353 1747 
Q 353 2572 751 3078 
Q 1150 3584 1784 3584 
Q 2172 3584 2448 3432 
Q 2725 3281 2906 2969 
z
M 947 1747 
Q 947 1113 1208 752 
Q 1469 391 1925 391 
Q 2381 391 2643 752 
Q 2906 1113 2906 1747 
Q 2906 2381 2643 2742 
Q 2381 3103 1925 3103 
Q 1469 3103 1208 2742 
Q 947 2381 947 1747 
z
" transform="scale(0.015625)"/>
       <path id="DejaVuSans-2f" d="M 1625 4666 
L 2156 4666 
L 531 -594 
L 0 -594 
L 1625 4666 
z
" transform="scale(0.015625)"/>
       <path id="DejaVuSans-54" d="M -19 4666 
L 3928 4666 
L 3928 4134 
L 2272 4134 
L 2272 0 
L 1638 0 
L 1638 4134 
L -19 4134 
L -19 4666 
z
" transform="scale(0.015625)"/>
       <path id="DejaVuSans-5f" d="M 3263 -1063 
L 3263 -1509 
L -63 -1509 
L -63 -1063 
L 3263 -1063 
z
" transform="scale(0.015625)"/>
       <path id="DejaVuSans-72" d="M 2631 2963 
Q 2534 3019 2420 3045 
Q 2306 3072 2169 3072 
Q 1681 3072 1420 2755 
Q 1159 2438 1159 1844 
L 1159 0 
L 581 0 
L 581 3500 
L 1159 3500 
L 1159 2956 
Q 1341 3275 1631 3429 
Q 1922 3584 2338 3584 
Q 2397 3584 2469 3576 
Q 2541 3569 2628 3553 
L 2631 2963 
z
" transform="scale(0.015625)"/>
       <path id="DejaVuSans-6f" d="M 1959 3097 
Q 1497 3097 1228 2736 
Q 959 2375 959 1747 
Q 959 1119 1226 758 
Q 1494 397 1959 397 
Q 2419 397 2687 759 
Q 2956 1122 2956 1747 
Q 2956 2369 2687 2733 
Q 2419 3097 1959 3097 
z
M 1959 3584 
Q 2709 3584 3137 3096 
Q 3566 2609 3566 1747 
Q 3566 888 3137 398 
Q 2709 -91 1959 -91 
Q 1206 -91 779 398 
Q 353 888 353 1747 
Q 353 2609 779 3096 
Q 1206 3584 1959 3584 
z
" transform="scale(0.015625)"/>
       <path id="DejaVuSans-75" d="M 544 1381 
L 544 3500 
L 1119 3500 
L 1119 1403 
Q 1119 906 1312 657 
Q 1506 409 1894 409 
Q 2359 409 2629 706 
Q 2900 1003 2900 1516 
L 2900 3500 
L 3475 3500 
L 3475 0 
L 2900 0 
L 2900 538 
Q 2691 219 2414 64 
Q 2138 -91 1772 -91 
Q 1169 -91 856 284 
Q 544 659 544 1381 
z
M 1991 3584 
L 1991 3584 
z
" transform="scale(0.015625)"/>
      </defs>
      <use xlink:href="#DejaVuSans-6c"/>
      <use xlink:href="#DejaVuSans-61" x="27.783203"/>
      <use xlink:href="#DejaVuSans-74" x="89.0625"/>
      <use xlink:href="#DejaVuSans-65" x="128.271484"/>
      <use xlink:href="#DejaVuSans-6e" x="189.794922"/>
      <use xlink:href="#DejaVuSans-63" x="253.173828"/>
      <use xlink:href="#DejaVuSans-79" x="308.154297"/>
      <use xlink:href="#DejaVuSans-20" x="367.333984"/>
      <use xlink:href="#DejaVuSans-64" x="399.121094"/>
      <use xlink:href="#DejaVuSans-65" x="462.597656"/>
      <use xlink:href="#DejaVuSans-6c" x="524.121094"/>
      <use xlink:href="#DejaVuSans-61" x="551.904297"/>
      <use xlink:href="#DejaVuSans-79" x="613.183594"/>
      <use xlink:href="#DejaVuSans-2f" x="672.363281"/>
      <use xlink:href="#DejaVuSans-54" x="706.054688"/>
      <use xlink:href="#DejaVuSans-5f" x="767.138672"/>
      <use xlink:href="#DejaVuSans-72" x="817.138672"/>
      <use xlink:href="#DejaVuSans-6f" x="856.001953"/>
      <use xlink:href="#DejaVuSans-75" x="917.183594"/>
      <use xlink:href="#DejaVuSans-6e" x="980.5625"/>
      <use xlink:href="#DejaVuSans-64" x="1043.941406"/>
     </g>
    </g>
   </g>
   <g id="matplotlib.axis_2">
    <g id="ytick_1">
     <g id="line2d_13">
      <path d="M 90 338.270796 
L 648 338.270796 
" clip-path="url(#pa327e8515a)" style="fill: none; stroke: #b0b0b0; stroke-width: 0.8; stroke-linecap: square"/>
     </g>
     <g id="line2d_14">
      <defs>
       <path id="m8c5840c43f" d="M 0 0 
L -3.5 0 
" style="stroke: #000000; stroke-width: 0.8"/>
      </defs>
      <g>
       <use xlink:href="#m8c5840c43f" x="90" y="338.270796" style="stroke: #000000; stroke-width: 0.8"/>
      </g>
     </g>
     <g id="text_8">
      <!-- $\mathdefault{10^{-6}}$ -->
      <g transform="translate(59.5 342.070015)scale(0.1 -0.1)">
       <defs>
        <path id="DejaVuSans-2212" d="M 678 2272 
L 4684 2272 
L 4684 1741 
L 678 1741 
L 678 2272 
z
" transform="scale(0.015625)"/>
        <path id="DejaVuSans-36" d="M 2113 2584 
Q 1688 2584 1439 2293 
Q 1191 2003 1191 1497 
Q 1191 994 1439 701 
Q 1688 409 2113 409 
Q 2538 409 2786 701 
Q 3034 994 3034 1497 
Q 3034 2003 2786 2293 
Q 2538 2584 2113 2584 
z
M 3366 4563 
L 3366 3988 
Q 3128 4100 2886 4159 
Q 2644 4219 2406 4219 
Q 1781 4219 1451 3797 
Q 1122 3375 1075 2522 
Q 1259 2794 1537 2939 
Q 1816 3084 2150 3084 
Q 2853 3084 3261 2657 
Q 3669 2231 3669 1497 
Q 3669 778 3244 343 
Q 2819 -91 2113 -91 
Q 1303 -91 875 529 
Q 447 1150 447 2328 
Q 447 3434 972 4092 
Q 1497 4750 2381 4750 
Q 2619 4750 2861 4703 
Q 3103 4656 3366 4563 
z
" transform="scale(0.015625)"/>
       </defs>
       <use xlink:href="#DejaVuSans-31" transform="translate(0 0.765625)"/>
       <use xlink:href="#DejaVuSans-30" transform="translate(63.623047 0.765625)"/>
       <use xlink:href="#DejaVuSans-2212" transform="translate(128.203125 39.046875)scale(0.7)"/>
       <use xlink:href="#DejaVuSans-36" transform="translate(186.855469 39.046875)scale(0.7)"/>
      </g>
     </g>
    </g>
    <g id="ytick_2">
     <g id="line2d_15">
      <path d="M 90 288.001277 
L 648 288.001277 
" clip-path="url(#pa327e8515a)" style="fill: none; stroke: #b0b0b0; stroke-width: 0.8; stroke-linecap: square"/>
     </g>
     <g id="line2d_16">
      <g>
       <use xlink:href="#m8c5840c43f" x="90" y="288.001277" style="stroke: #000000; stroke-width: 0.8"/>
      </g>
     </g>
     <g id="text_9">
      <!-- $\mathdefault{10^{-5}}$ -->
      <g transform="translate(59.5 291.800496)scale(0.1 -0.1)">
       <use xlink:href="#DejaVuSans-31" transform="translate(0 0.684375)"/>
       <use xlink:href="#DejaVuSans-30" transform="translate(63.623047 0.684375)"/>
       <use xlink:href="#DejaVuSans-2212" transform="translate(128.203125 38.965625)scale(0.7)"/>
       <use xlink:href="#DejaVuSans-35" transform="translate(186.855469 38.965625)scale(0.7)"/>
      </g>
     </g>
    </g>
    <g id="ytick_3">
     <g id="line2d_17">
      <path d="M 90 237.731759 
L 648 237.731759 
" clip-path="url(#pa327e8515a)" style="fill: none; stroke: #b0b0b0; stroke-width: 0.8; stroke-linecap: square"/>
     </g>
     <g id="line2d_18">
      <g>
       <use xlink:href="#m8c5840c43f" x="90" y="237.731759" style="stroke: #000000; stroke-width: 0.8"/>
      </g>
     </g>
     <g id="text_10">
      <!-- $\mathdefault{10^{-4}}$ -->
      <g transform="translate(59.5 241.530977)scale(0.1 -0.1)">
       <use xlink:href="#DejaVuSans-31" transform="translate(0 0.684375)"/>
       <use xlink:href="#DejaVuSans-30" transform="translate(63.623047 0.684375)"/>
       <use xlink:href="#DejaVuSans-2212" transform="translate(128.203125 38.965625)scale(0.7)"/>
       <use xlink:href="#DejaVuSans-34" transform="translate(186.855469 38.965625)scale(0.7)"/>
      </g>
     </g>
    </g>
    <g id="ytick_4">
     <g id="line2d_19">
      <path d="M 90 187.46224 
L 648 187.46224 
" clip-path="url(#pa327e8515a)" style="fill: none; stroke: #b0b0b0; stroke-width: 0.8; stroke-linecap: square"/>
     </g>
     <g id="line2d_20">
      <g>
       <use xlink:href="#m8c5840c43f" x="90" y="187.46224" style="stroke: #000000; stroke-width: 0.8"/>
      </g>
     </g>
     <g id="text_11">
      <!-- $\mathdefault{10^{-3}}$ -->
      <g transform="translate(59.5 191.261459)scale(0.1 -0.1)">
       <use xlink:href="#DejaVuSans-31" transform="translate(0 0.765625)"/>
       <use xlink:href="#DejaVuSans-30" transform="translate(63.623047 0.765625)"/>
       <use xlink:href="#DejaVuSans-2212" transform="translate(128.203125 39.046875)scale(0.7)"/>
       <use xlink:href="#DejaVuSans-33" transform="translate(186.855469 39.046875)scale(0.7)"/>
      </g>
     </g>
    </g>
    <g id="ytick_5">
     <g id="line2d_21">
      <path d="M 90 137.192721 
L 648 137.192721 
" clip-path="url(#pa327e8515a)" style="fill: none; stroke: #b0b0b0; stroke-width: 0.8; stroke-linecap: square"/>
     </g>
     <g id="line2d_22">
      <g>
       <use xlink:href="#m8c5840c43f" x="90" y="137.192721" style="stroke: #000000; stroke-width: 0.8"/>
      </g>
     </g>
     <g id="text_12">
      <!-- $\mathdefault{10^{-2}}$ -->
      <g transform="translate(59.5 140.99194)scale(0.1 -0.1)">
       <use xlink:href="#DejaVuSans-31" transform="translate(0 0.765625)"/>
       <use xlink:href="#DejaVuSans-30" transform="translate(63.623047 0.765625)"/>
       <use xlink:href="#DejaVuSans-2212" transform="translate(128.203125 39.046875)scale(0.7)"/>
       <use xlink:href="#DejaVuSans-32" transform="translate(186.855469 39.046875)scale(0.7)"/>
      </g>
     </g>
    </g>
    <g id="ytick_6">
     <g id="line2d_23">
      <path d="M 90 86.923203 
L 648 86.923203 
" clip-path="url(#pa327e8515a)" style="fill: none; stroke: #b0b0b0; stroke-width: 0.8; stroke-linecap: square"/>
     </g>
     <g id="line2d_24">
      <g>
       <use xlink:href="#m8c5840c43f" x="90" y="86.923203" style="stroke: #000000; stroke-width: 0.8"/>
      </g>
     </g>
     <g id="text_13">
      <!-- $\mathdefault{10^{-1}}$ -->
      <g transform="translate(59.5 90.722422)scale(0.1 -0.1)">
       <use xlink:href="#DejaVuSans-31" transform="translate(0 0.684375)"/>
       <use xlink:href="#DejaVuSans-30" transform="translate(63.623047 0.684375)"/>
       <use xlink:href="#DejaVuSans-2212" transform="translate(128.203125 38.965625)scale(0.7)"/>
       <use xlink:href="#DejaVuSans-31" transform="translate(186.855469 38.965625)scale(0.7)"/>
      </g>
     </g>
    </g>
    <g id="ytick_7">
     <g id="line2d_25">
      <defs>
       <path id="mb8d889e804" d="M 0 0 
L -2 0 
" style="stroke: #000000; stroke-width: 0.6"/>
      </defs>
      <g>
       <use xlink:href="#mb8d889e804" x="90" y="373.407681" style="stroke: #000000; stroke-width: 0.6"/>
      </g>
     </g>
    </g>
    <g id="ytick_8">
     <g id="line2d_26">
      <g>
       <use xlink:href="#mb8d889e804" x="90" y="364.555659" style="stroke: #000000; stroke-width: 0.6"/>
      </g>
     </g>
    </g>
    <g id="ytick_9">
     <g id="line2d_27">
      <g>
       <use xlink:href="#mb8d889e804" x="90" y="358.275048" style="stroke: #000000; stroke-width: 0.6"/>
      </g>
     </g>
    </g>
    <g id="ytick_10">
     <g id="line2d_28">
      <g>
       <use xlink:href="#mb8d889e804" x="90" y="353.403429" style="stroke: #000000; stroke-width: 0.6"/>
      </g>
     </g>
    </g>
    <g id="ytick_11">
     <g id="line2d_29">
      <g>
       <use xlink:href="#mb8d889e804" x="90" y="349.423026" style="stroke: #000000; stroke-width: 0.6"/>
      </g>
     </g>
    </g>
    <g id="ytick_12">
     <g id="line2d_30">
      <g>
       <use xlink:href="#mb8d889e804" x="90" y="346.057643" style="stroke: #000000; stroke-width: 0.6"/>
      </g>
     </g>
    </g>
    <g id="ytick_13">
     <g id="line2d_31">
      <g>
       <use xlink:href="#mb8d889e804" x="90" y="343.142415" style="stroke: #000000; stroke-width: 0.6"/>
      </g>
     </g>
    </g>
    <g id="ytick_14">
     <g id="line2d_32">
      <g>
       <use xlink:href="#mb8d889e804" x="90" y="340.571003" style="stroke: #000000; stroke-width: 0.6"/>
      </g>
     </g>
    </g>
    <g id="ytick_15">
     <g id="line2d_33">
      <g>
       <use xlink:href="#mb8d889e804" x="90" y="323.138163" style="stroke: #000000; stroke-width: 0.6"/>
      </g>
     </g>
    </g>
    <g id="ytick_16">
     <g id="line2d_34">
      <g>
       <use xlink:href="#mb8d889e804" x="90" y="314.28614" style="stroke: #000000; stroke-width: 0.6"/>
      </g>
     </g>
    </g>
    <g id="ytick_17">
     <g id="line2d_35">
      <g>
       <use xlink:href="#mb8d889e804" x="90" y="308.00553" style="stroke: #000000; stroke-width: 0.6"/>
      </g>
     </g>
    </g>
    <g id="ytick_18">
     <g id="line2d_36">
      <g>
       <use xlink:href="#mb8d889e804" x="90" y="303.13391" style="stroke: #000000; stroke-width: 0.6"/>
      </g>
     </g>
    </g>
    <g id="ytick_19">
     <g id="line2d_37">
      <g>
       <use xlink:href="#mb8d889e804" x="90" y="299.153507" style="stroke: #000000; stroke-width: 0.6"/>
      </g>
     </g>
    </g>
    <g id="ytick_20">
     <g id="line2d_38">
      <g>
       <use xlink:href="#mb8d889e804" x="90" y="295.788124" style="stroke: #000000; stroke-width: 0.6"/>
      </g>
     </g>
    </g>
    <g id="ytick_21">
     <g id="line2d_39">
      <g>
       <use xlink:href="#mb8d889e804" x="90" y="292.872897" style="stroke: #000000; stroke-width: 0.6"/>
      </g>
     </g>
    </g>
    <g id="ytick_22">
     <g id="line2d_40">
      <g>
       <use xlink:href="#mb8d889e804" x="90" y="290.301484" style="stroke: #000000; stroke-width: 0.6"/>
      </g>
     </g>
    </g>
    <g id="ytick_23">
     <g id="line2d_41">
      <g>
       <use xlink:href="#mb8d889e804" x="90" y="272.868644" style="stroke: #000000; stroke-width: 0.6"/>
      </g>
     </g>
    </g>
    <g id="ytick_24">
     <g id="line2d_42">
      <g>
       <use xlink:href="#mb8d889e804" x="90" y="264.016621" style="stroke: #000000; stroke-width: 0.6"/>
      </g>
     </g>
    </g>
    <g id="ytick_25">
     <g id="line2d_43">
      <g>
       <use xlink:href="#mb8d889e804" x="90" y="257.736011" style="stroke: #000000; stroke-width: 0.6"/>
      </g>
     </g>
    </g>
    <g id="ytick_26">
     <g id="line2d_44">
      <g>
       <use xlink:href="#mb8d889e804" x="90" y="252.864392" style="stroke: #000000; stroke-width: 0.6"/>
      </g>
     </g>
    </g>
    <g id="ytick_27">
     <g id="line2d_45">
      <g>
       <use xlink:href="#mb8d889e804" x="90" y="248.883988" style="stroke: #000000; stroke-width: 0.6"/>
      </g>
     </g>
    </g>
    <g id="ytick_28">
     <g id="line2d_46">
      <g>
       <use xlink:href="#mb8d889e804" x="90" y="245.518606" style="stroke: #000000; stroke-width: 0.6"/>
      </g>
     </g>
    </g>
    <g id="ytick_29">
     <g id="line2d_47">
      <g>
       <use xlink:href="#mb8d889e804" x="90" y="242.603378" style="stroke: #000000; stroke-width: 0.6"/>
      </g>
     </g>
    </g>
    <g id="ytick_30">
     <g id="line2d_48">
      <g>
       <use xlink:href="#mb8d889e804" x="90" y="240.031966" style="stroke: #000000; stroke-width: 0.6"/>
      </g>
     </g>
    </g>
    <g id="ytick_31">
     <g id="line2d_49">
      <g>
       <use xlink:href="#mb8d889e804" x="90" y="222.599126" style="stroke: #000000; stroke-width: 0.6"/>
      </g>
     </g>
    </g>
    <g id="ytick_32">
     <g id="line2d_50">
      <g>
       <use xlink:href="#mb8d889e804" x="90" y="213.747103" style="stroke: #000000; stroke-width: 0.6"/>
      </g>
     </g>
    </g>
    <g id="ytick_33">
     <g id="line2d_51">
      <g>
       <use xlink:href="#mb8d889e804" x="90" y="207.466493" style="stroke: #000000; stroke-width: 0.6"/>
      </g>
     </g>
    </g>
    <g id="ytick_34">
     <g id="line2d_52">
      <g>
       <use xlink:href="#mb8d889e804" x="90" y="202.594873" style="stroke: #000000; stroke-width: 0.6"/>
      </g>
     </g>
    </g>
    <g id="ytick_35">
     <g id="line2d_53">
      <g>
       <use xlink:href="#mb8d889e804" x="90" y="198.61447" style="stroke: #000000; stroke-width: 0.6"/>
      </g>
     </g>
    </g>
    <g id="ytick_36">
     <g id="line2d_54">
      <g>
       <use xlink:href="#mb8d889e804" x="90" y="195.249087" style="stroke: #000000; stroke-width: 0.6"/>
      </g>
     </g>
    </g>
    <g id="ytick_37">
     <g id="line2d_55">
      <g>
       <use xlink:href="#mb8d889e804" x="90" y="192.33386" style="stroke: #000000; stroke-width: 0.6"/>
      </g>
     </g>
    </g>
    <g id="ytick_38">
     <g id="line2d_56">
      <g>
       <use xlink:href="#mb8d889e804" x="90" y="189.762447" style="stroke: #000000; stroke-width: 0.6"/>
      </g>
     </g>
    </g>
    <g id="ytick_39">
     <g id="line2d_57">
      <g>
       <use xlink:href="#mb8d889e804" x="90" y="172.329607" style="stroke: #000000; stroke-width: 0.6"/>
      </g>
     </g>
    </g>
    <g id="ytick_40">
     <g id="line2d_58">
      <g>
       <use xlink:href="#mb8d889e804" x="90" y="163.477584" style="stroke: #000000; stroke-width: 0.6"/>
      </g>
     </g>
    </g>
    <g id="ytick_41">
     <g id="line2d_59">
      <g>
       <use xlink:href="#mb8d889e804" x="90" y="157.196974" style="stroke: #000000; stroke-width: 0.6"/>
      </g>
     </g>
    </g>
    <g id="ytick_42">
     <g id="line2d_60">
      <g>
       <use xlink:href="#mb8d889e804" x="90" y="152.325354" style="stroke: #000000; stroke-width: 0.6"/>
      </g>
     </g>
    </g>
    <g id="ytick_43">
     <g id="line2d_61">
      <g>
       <use xlink:href="#mb8d889e804" x="90" y="148.344951" style="stroke: #000000; stroke-width: 0.6"/>
      </g>
     </g>
    </g>
    <g id="ytick_44">
     <g id="line2d_62">
      <g>
       <use xlink:href="#mb8d889e804" x="90" y="144.979568" style="stroke: #000000; stroke-width: 0.6"/>
      </g>
     </g>
    </g>
    <g id="ytick_45">
     <g id="line2d_63">
      <g>
       <use xlink:href="#mb8d889e804" x="90" y="142.064341" style="stroke: #000000; stroke-width: 0.6"/>
      </g>
     </g>
    </g>
    <g id="ytick_46">
     <g id="line2d_64">
      <g>
       <use xlink:href="#mb8d889e804" x="90" y="139.492928" style="stroke: #000000; stroke-width: 0.6"/>
      </g>
     </g>
    </g>
    <g id="ytick_47">
     <g id="line2d_65">
      <g>
       <use xlink:href="#mb8d889e804" x="90" y="122.060089" style="stroke: #000000; stroke-width: 0.6"/>
      </g>
     </g>
    </g>
    <g id="ytick_48">
     <g id="line2d_66">
      <g>
       <use xlink:href="#mb8d889e804" x="90" y="113.208066" style="stroke: #000000; stroke-width: 0.6"/>
      </g>
     </g>
    </g>
    <g id="ytick_49">
     <g id="line2d_67">
      <g>
       <use xlink:href="#mb8d889e804" x="90" y="106.927456" style="stroke: #000000; stroke-width: 0.6"/>
      </g>
     </g>
    </g>
    <g id="ytick_50">
     <g id="line2d_68">
      <g>
       <use xlink:href="#mb8d889e804" x="90" y="102.055836" style="stroke: #000000; stroke-width: 0.6"/>
      </g>
     </g>
    </g>
    <g id="ytick_51">
     <g id="line2d_69">
      <g>
       <use xlink:href="#mb8d889e804" x="90" y="98.075433" style="stroke: #000000; stroke-width: 0.6"/>
      </g>
     </g>
    </g>
    <g id="ytick_52">
     <g id="line2d_70">
      <g>
       <use xlink:href="#mb8d889e804" x="90" y="94.71005" style="stroke: #000000; stroke-width: 0.6"/>
      </g>
     </g>
    </g>
    <g id="ytick_53">
     <g id="line2d_71">
      <g>
       <use xlink:href="#mb8d889e804" x="90" y="91.794823" style="stroke: #000000; stroke-width: 0.6"/>
      </g>
     </g>
    </g>
    <g id="ytick_54">
     <g id="line2d_72">
      <g>
       <use xlink:href="#mb8d889e804" x="90" y="89.22341" style="stroke: #000000; stroke-width: 0.6"/>
      </g>
     </g>
    </g>
    <g id="ytick_55">
     <g id="line2d_73">
      <g>
       <use xlink:href="#mb8d889e804" x="90" y="71.79057" style="stroke: #000000; stroke-width: 0.6"/>
      </g>
     </g>
    </g>
    <g id="ytick_56">
     <g id="line2d_74">
      <g>
       <use xlink:href="#mb8d889e804" x="90" y="62.938547" style="stroke: #000000; stroke-width: 0.6"/>
      </g>
     </g>
    </g>
    <g id="ytick_57">
     <g id="line2d_75">
      <g>
       <use xlink:href="#mb8d889e804" x="90" y="56.657937" style="stroke: #000000; stroke-width: 0.6"/>
      </g>
     </g>
    </g>
    <g id="text_14">
     <!-- additional error -->
     <g transform="translate(53.420312 256.683437)rotate(-90)scale(0.1 -0.1)">
      <defs>
       <path id="DejaVuSans-69" d="M 603 3500 
L 1178 3500 
L 1178 0 
L 603 0 
L 603 3500 
z
M 603 4863 
L 1178 4863 
L 1178 4134 
L 603 4134 
L 603 4863 
z
" transform="scale(0.015625)"/>
      </defs>
      <use xlink:href="#DejaVuSans-61"/>
      <use xlink:href="#DejaVuSans-64" x="61.279297"/>
      <use xlink:href="#DejaVuSans-64" x="124.755859"/>
      <use xlink:href="#DejaVuSans-69" x="188.232422"/>
      <use xlink:href="#DejaVuSans-74" x="216.015625"/>
      <use xlink:href="#DejaVuSans-69" x="255.224609"/>
      <use xlink:href="#DejaVuSans-6f" x="283.007812"/>
      <use xlink:href="#DejaVuSans-6e" x="344.189453"/>
      <use xlink:href="#DejaVuSans-61" x="407.568359"/>
      <use xlink:href="#DejaVuSans-6c" x="468.847656"/>
      <use xlink:href="#DejaVuSans-20" x="496.630859"/>
      <use xlink:href="#DejaVuSans-65" x="528.417969"/>
      <use xlink:href="#DejaVuSans-72" x="589.941406"/>
      <use xlink:href="#DejaVuSans-72" x="629.304688"/>
      <use xlink:href="#DejaVuSans-6f" x="668.167969"/>
      <use xlink:href="#DejaVuSans-72" x="729.349609"/>
     </g>
    </g>
   </g>
   <g id="line2d_76">
    <path d="M 115.363636 199.593898 
L 125.716141 184.461265 
L 136.068646 175.609242 
L 146.42115 169.328632 
L 156.773655 164.457012 
L 167.12616 160.476609 
L 177.478664 157.111226 
L 187.831169 154.195999 
L 198.183673 151.624586 
L 208.536178 149.324379 
L 218.888683 147.243589 
L 229.241187 145.343976 
L 239.593692 143.596502 
L 249.946197 141.978593 
L 260.298701 140.472356 
L 270.651206 139.063366 
L 281.003711 137.739823 
L 291.356215 136.491953 
L 301.70872 135.31157 
L 312.061224 134.191746 
L 322.413729 133.12657 
L 332.766234 132.110956 
L 343.118738 131.140495 
L 353.471243 130.211343 
L 363.823748 129.320127 
L 374.176252 128.463869 
L 384.528757 127.639931 
L 394.881262 126.84596 
L 405.233766 126.079855 
L 415.586271 125.339723 
L 425.938776 124.623863 
L 436.29128 123.930733 
L 446.643785 123.258933 
L 456.996289 122.60719 
L 467.348794 121.974341 
L 477.701299 121.35932 
L 488.053803 120.761152 
L 498.406308 120.178937 
L 508.758813 119.611846 
L 519.111317 119.059113 
L 529.463822 118.52003 
L 539.816327 117.993937 
L 550.168831 117.480225 
L 560.521336 116.978323 
L 570.87384 116.487701 
L 581.226345 116.007862 
L 591.57885 115.538344 
L 601.931354 115.07871 
L 612.283859 114.628555 
L 622.636364 114.187494 
" clip-path="url(#pa327e8515a)" style="fill: none; stroke: #440154; stroke-width: 1.5; stroke-linecap: square"/>
   </g>
   <g id="line2d_77">
    <path d="M 115.363636 253.083808 
L 125.716141 237.951175 
L 136.068646 229.099152 
L 146.42115 222.818542 
L 156.773655 217.946923 
L 167.12616 213.96652 
L 177.478664 210.601137 
L 187.831169 207.685909 
L 198.183673 205.114497 
L 208.536178 202.81429 
L 218.888683 200.733499 
L 229.241187 198.833887 
L 239.593692 197.086412 
L 249.946197 195.468504 
L 260.298701 193.962267 
L 270.651206 192.553276 
L 281.003711 191.229733 
L 291.356215 189.981864 
L 301.70872 188.80148 
L 312.061224 187.681657 
L 322.413729 186.616481 
L 332.766234 185.600866 
L 343.118738 184.630405 
L 353.471243 183.701254 
L 363.823748 182.810037 
L 374.176252 181.953779 
L 384.528757 181.129841 
L 394.881262 180.335871 
L 405.233766 179.569765 
L 415.586271 178.829634 
L 425.938776 178.113774 
L 436.29128 177.420643 
L 446.643785 176.748844 
L 456.996289 176.0971 
L 467.348794 175.464251 
L 477.701299 174.849231 
L 488.053803 174.251063 
L 498.406308 173.668847 
L 508.758813 173.101756 
L 519.111317 172.549024 
L 529.463822 172.00994 
L 539.816327 171.483848 
L 550.168831 170.970135 
L 560.521336 170.468233 
L 570.87384 169.977611 
L 581.226345 169.497773 
L 591.57885 169.028254 
L 601.931354 168.568621 
L 612.283859 168.118465 
L 622.636364 167.677404 
" clip-path="url(#pa327e8515a)" style="fill: none; stroke: #31688e; stroke-width: 1.5; stroke-linecap: square"/>
   </g>
   <g id="line2d_78">
    <path d="M 115.363636 308.135869 
L 125.716141 293.003236 
L 136.068646 284.151213 
L 146.42115 277.870603 
L 156.773655 272.998984 
L 167.12616 269.01858 
L 177.478664 265.653198 
L 187.831169 262.73797 
L 198.183673 260.166558 
L 208.536178 257.866351 
L 218.888683 255.78556 
L 229.241187 253.885947 
L 239.593692 252.138473 
L 249.946197 250.520565 
L 260.298701 249.014328 
L 270.651206 247.605337 
L 281.003711 246.281794 
L 291.356215 245.033925 
L 301.70872 243.853541 
L 312.061224 242.733718 
L 322.413729 241.668542 
L 332.766234 240.652927 
L 343.118738 239.682466 
L 353.471243 238.753315 
L 363.823748 237.862098 
L 374.176252 237.00584 
L 384.528757 236.181902 
L 394.881262 235.387932 
L 405.233766 234.621826 
L 415.586271 233.881695 
L 425.938776 233.165835 
L 436.29128 232.472704 
L 446.643785 231.800904 
L 456.996289 231.149161 
L 467.348794 230.516312 
L 477.701299 229.901292 
L 488.053803 229.303123 
L 498.406308 228.720908 
L 508.758813 228.153817 
L 519.111317 227.601085 
L 529.463822 227.062001 
L 539.816327 226.535909 
L 550.168831 226.022196 
L 560.521336 225.520294 
L 570.87384 225.029672 
L 581.226345 224.549833 
L 591.57885 224.080315 
L 601.931354 223.620682 
L 612.283859 223.170526 
L 622.636364 222.729465 
" clip-path="url(#pa327e8515a)" style="fill: none; stroke: #35b779; stroke-width: 1.5; stroke-linecap: square"/>
   </g>
   <g id="line2d_79">
    <path d="M 115.363636 369.36 
L 125.716141 354.227367 
L 136.068646 345.375344 
L 146.42115 339.094734 
L 156.773655 334.223114 
L 167.12616 330.242711 
L 177.478664 326.877328 
L 187.831169 323.962101 
L 198.183673 321.390688 
L 208.536178 319.090481 
L 218.888683 317.009691 
L 229.241187 315.110078 
L 239.593692 313.362604 
L 249.946197 311.744695 
L 260.298701 310.238459 
L 270.651206 308.829468 
L 281.003711 307.505925 
L 291.356215 306.258055 
L 301.70872 305.077672 
L 312.061224 303.957848 
L 322.413729 302.892673 
L 332.766234 301.877058 
L 343.118738 300.906597 
L 353.471243 299.977445 
L 363.823748 299.086229 
L 374.176252 298.229971 
L 384.528757 297.406033 
L 394.881262 296.612062 
L 405.233766 295.845957 
L 415.586271 295.105826 
L 425.938776 294.389966 
L 436.29128 293.696835 
L 446.643785 293.025035 
L 456.996289 292.373292 
L 467.348794 291.740443 
L 477.701299 291.125423 
L 488.053803 290.527254 
L 498.406308 289.945039 
L 508.758813 289.377948 
L 519.111317 288.825216 
L 529.463822 288.286132 
L 539.816327 287.76004 
L 550.168831 287.246327 
L 560.521336 286.744425 
L 570.87384 286.253803 
L 581.226345 285.773964 
L 591.57885 285.304446 
L 601.931354 284.844812 
L 612.283859 284.394657 
L 622.636364 283.953596 
" clip-path="url(#pa327e8515a)" style="fill: none; stroke: #fde725; stroke-width: 1.5; stroke-linecap: square"/>
   </g>
   <g id="line2d_80">
    <path d="M 115.363636 152.366404 
L 125.716141 137.233771 
L 136.068646 128.381748 
L 146.42115 122.101138 
L 156.773655 117.229519 
L 167.12616 113.249115 
L 177.478664 109.883733 
L 187.831169 106.968505 
L 198.183673 104.397093 
L 208.536178 102.096886 
L 218.888683 100.016095 
L 229.241187 98.116482 
L 239.593692 96.369008 
L 249.946197 94.7511 
L 260.298701 93.244863 
L 270.651206 91.835872 
L 281.003711 90.512329 
L 291.356215 89.26446 
L 301.70872 88.084076 
L 312.061224 86.964253 
L 322.413729 85.899077 
L 332.766234 84.883462 
L 343.118738 83.913001 
L 353.471243 82.98385 
L 363.823748 82.092633 
L 374.176252 81.236375 
L 384.528757 80.412437 
L 394.881262 79.618467 
L 405.233766 78.852361 
L 415.586271 78.11223 
L 425.938776 77.39637 
L 436.29128 76.703239 
L 446.643785 76.031439 
L 456.996289 75.379696 
L 467.348794 74.746847 
L 477.701299 74.131827 
L 488.053803 73.533658 
L 498.406308 72.951443 
L 508.758813 72.384352 
L 519.111317 71.83162 
L 529.463822 71.292536 
L 539.816327 70.766444 
L 550.168831 70.252731 
L 560.521336 69.750829 
L 570.87384 69.260207 
L 581.226345 68.780368 
L 591.57885 68.31085 
L 601.931354 67.851217 
L 612.283859 67.401061 
L 622.636364 66.96 
" clip-path="url(#pa327e8515a)" style="fill: none; stroke-dasharray: 5.55,2.4; stroke-dashoffset: 0; stroke: #440154; stroke-width: 1.5"/>
   </g>
   <g id="line2d_81">
    <path d="M 115.363636 181.525974 
L 125.716141 166.393341 
L 136.068646 157.541318 
L 146.42115 151.260708 
L 156.773655 146.389088 
L 167.12616 142.408685 
L 177.478664 139.043302 
L 187.831169 136.128075 
L 198.183673 133.556662 
L 208.536178 131.256455 
L 218.888683 129.175665 
L 229.241187 127.276052 
L 239.593692 125.528578 
L 249.946197 123.910669 
L 260.298701 122.404432 
L 270.651206 120.995442 
L 281.003711 119.671899 
L 291.356215 118.424029 
L 301.70872 117.243646 
L 312.061224 116.123822 
L 322.413729 115.058646 
L 332.766234 114.043032 
L 343.118738 113.072571 
L 353.471243 112.143419 
L 363.823748 111.252202 
L 374.176252 110.395945 
L 384.528757 109.572006 
L 394.881262 108.778036 
L 405.233766 108.01193 
L 415.586271 107.271799 
L 425.938776 106.555939 
L 436.29128 105.862809 
L 446.643785 105.191009 
L 456.996289 104.539266 
L 467.348794 103.906416 
L 477.701299 103.291396 
L 488.053803 102.693228 
L 498.406308 102.111013 
L 508.758813 101.543922 
L 519.111317 100.991189 
L 529.463822 100.452106 
L 539.816327 99.926013 
L 550.168831 99.412301 
L 560.521336 98.910399 
L 570.87384 98.419776 
L 581.226345 97.939938 
L 591.57885 97.470419 
L 601.931354 97.010786 
L 612.283859 96.56063 
L 622.636364 96.119569 
" clip-path="url(#pa327e8515a)" style="fill: none; stroke-dasharray: 5.55,2.4; stroke-dashoffset: 0; stroke: #31688e; stroke-width: 1.5"/>
   </g>
   <g id="line2d_82">
    <path d="M 115.363636 213.260747 
L 125.716141 198.128114 
L 136.068646 189.276091 
L 146.42115 182.995481 
L 156.773655 178.123861 
L 167.12616 174.143458 
L 177.478664 170.778075 
L 187.831169 167.862848 
L 198.183673 165.291435 
L 208.536178 162.991228 
L 218.888683 160.910438 
L 229.241187 159.010825 
L 239.593692 157.263351 
L 249.946197 155.645442 
L 260.298701 154.139206 
L 270.651206 152.730215 
L 281.003711 151.406672 
L 291.356215 150.158803 
L 301.70872 148.978419 
L 312.061224 147.858595 
L 322.413729 146.79342 
L 332.766234 145.777805 
L 343.118738 144.807344 
L 353.471243 143.878192 
L 363.823748 142.986976 
L 374.176252 142.130718 
L 384.528757 141.30678 
L 394.881262 140.512809 
L 405.233766 139.746704 
L 415.586271 139.006573 
L 425.938776 138.290713 
L 436.29128 137.597582 
L 446.643785 136.925782 
L 456.996289 136.274039 
L 467.348794 135.64119 
L 477.701299 135.02617 
L 488.053803 134.428001 
L 498.406308 133.845786 
L 508.758813 133.278695 
L 519.111317 132.725963 
L 529.463822 132.186879 
L 539.816327 131.660787 
L 550.168831 131.147074 
L 560.521336 130.645172 
L 570.87384 130.15455 
L 581.226345 129.674711 
L 591.57885 129.205193 
L 601.931354 128.745559 
L 612.283859 128.295404 
L 622.636364 127.854343 
" clip-path="url(#pa327e8515a)" style="fill: none; stroke-dasharray: 5.55,2.4; stroke-dashoffset: 0; stroke: #35b779; stroke-width: 1.5"/>
   </g>
   <g id="line2d_83">
    <path d="M 115.363636 244.387362 
L 125.716141 229.254729 
L 136.068646 220.402706 
L 146.42115 214.122096 
L 156.773655 209.250476 
L 167.12616 205.270073 
L 177.478664 201.90469 
L 187.831169 198.989463 
L 198.183673 196.41805 
L 208.536178 194.117843 
L 218.888683 192.037053 
L 229.241187 190.13744 
L 239.593692 188.389966 
L 249.946197 186.772057 
L 260.298701 185.265821 
L 270.651206 183.85683 
L 281.003711 182.533287 
L 291.356215 181.285418 
L 301.70872 180.105034 
L 312.061224 178.985211 
L 322.413729 177.920035 
L 332.766234 176.90442 
L 343.118738 175.933959 
L 353.471243 175.004807 
L 363.823748 174.113591 
L 374.176252 173.257333 
L 384.528757 172.433395 
L 394.881262 171.639424 
L 405.233766 170.873319 
L 415.586271 170.133188 
L 425.938776 169.417328 
L 436.29128 168.724197 
L 446.643785 168.052397 
L 456.996289 167.400654 
L 467.348794 166.767805 
L 477.701299 166.152785 
L 488.053803 165.554616 
L 498.406308 164.972401 
L 508.758813 164.40531 
L 519.111317 163.852578 
L 529.463822 163.313494 
L 539.816327 162.787402 
L 550.168831 162.273689 
L 560.521336 161.771787 
L 570.87384 161.281165 
L 581.226345 160.801326 
L 591.57885 160.331808 
L 601.931354 159.872174 
L 612.283859 159.422019 
L 622.636364 158.980958 
" clip-path="url(#pa327e8515a)" style="fill: none; stroke-dasharray: 5.55,2.4; stroke-dashoffset: 0; stroke: #fde725; stroke-width: 1.5"/>
   </g>
   <g id="patch_3">
    <path d="M 90 384.48 
L 90 51.84 
" style="fill: none; stroke: #000000; stroke-width: 0.8; stroke-linejoin: miter; stroke-linecap: square"/>
   </g>
   <g id="patch_4">
    <path d="M 648 384.48 
L 648 51.84 
" style="fill: none; stroke: #000000; stroke-width: 0.8; stroke-linejoin: miter; stroke-linecap: square"/>
   </g>
   <g id="patch_5">
    <path d="M 90 384.48 
L 648 384.48 
" style="fill: none; stroke: #000000; stroke-width: 0.8; stroke-linejoin: miter; stroke-linecap: square"/>
   </g>
   <g id="patch_6">
    <path d="M 90 51.84 
L 648 51.84 
" style="fill: none; stroke: #000000; stroke-width: 0.8; stroke-linejoin: miter; stroke-linecap: square"/>
   </g>
   <g id="legend_1">
    <g id="patch_7">
     <path d="M 560.4625 379.48 
L 641 379.48 
Q 643 379.48 643 377.48 
L 643 261.055 
Q 643 259.055 641 259.055 
L 560.4625 259.055 
Q 558.4625 259.055 558.4625 261.055 
L 558.4625 377.48 
Q 558.4625 379.48 560.4625 379.48 
z
" style="fill: #ffffff; opacity: 0.8; stroke: #cccccc; stroke-linejoin: miter"/>
    </g>
    <g id="line2d_84">
     <path d="M 562.4625 267.153437 
L 572.4625 267.153437 
L 582.4625 267.153437 
" style="fill: none; stroke: #440154; stroke-width: 1.5; stroke-linecap: square"/>
    </g>
    <g id="text_15">
     <!-- d=3, p=0 -->
     <g transform="translate(590.4625 270.653437)scale(0.1 -0.1)">
      <defs>
       <path id="DejaVuSans-3d" d="M 678 2906 
L 4684 2906 
L 4684 2381 
L 678 2381 
L 678 2906 
z
M 678 1631 
L 4684 1631 
L 4684 1100 
L 678 1100 
L 678 1631 
z
" transform="scale(0.015625)"/>
       <path id="DejaVuSans-2c" d="M 750 794 
L 1409 794 
L 1409 256 
L 897 -744 
L 494 -744 
L 750 256 
L 750 794 
z
" transform="scale(0.015625)"/>
       <path id="DejaVuSans-70" d="M 1159 525 
L 1159 -1331 
L 581 -1331 
L 581 3500 
L 1159 3500 
L 1159 2969 
Q 1341 3281 1617 3432 
Q 1894 3584 2278 3584 
Q 2916 3584 3314 3078 
Q 3713 2572 3713 1747 
Q 3713 922 3314 415 
Q 2916 -91 2278 -91 
Q 1894 -91 1617 61 
Q 1341 213 1159 525 
z
M 3116 1747 
Q 3116 2381 2855 2742 
Q 2594 3103 2138 3103 
Q 1681 3103 1420 2742 
Q 1159 2381 1159 1747 
Q 1159 1113 1420 752 
Q 1681 391 2138 391 
Q 2594 391 2855 752 
Q 3116 1113 3116 1747 
z
" transform="scale(0.015625)"/>
      </defs>
      <use xlink:href="#DejaVuSans-64"/>
      <use xlink:href="#DejaVuSans-3d" x="63.476562"/>
      <use xlink:href="#DejaVuSans-33" x="147.265625"/>
      <use xlink:href="#DejaVuSans-2c" x="210.888672"/>
      <use xlink:href="#DejaVuSans-20" x="242.675781"/>
      <use xlink:href="#DejaVuSans-70" x="274.462891"/>
      <use xlink:href="#DejaVuSans-3d" x="337.939453"/>
      <use xlink:href="#DejaVuSans-30" x="421.728516"/>
     </g>
    </g>
    <g id="line2d_85">
     <path d="M 562.4625 281.831563 
L 572.4625 281.831563 
L 582.4625 281.831563 
" style="fill: none; stroke: #31688e; stroke-width: 1.5; stroke-linecap: square"/>
    </g>
    <g id="text_16">
     <!-- d=5, p=0 -->
     <g transform="translate(590.4625 285.331563)scale(0.1 -0.1)">
      <use xlink:href="#DejaVuSans-64"/>
      <use xlink:href="#DejaVuSans-3d" x="63.476562"/>
      <use xlink:href="#DejaVuSans-35" x="147.265625"/>
      <use xlink:href="#DejaVuSans-2c" x="210.888672"/>
      <use xlink:href="#DejaVuSans-20" x="242.675781"/>
      <use xlink:href="#DejaVuSans-70" x="274.462891"/>
      <use xlink:href="#DejaVuSans-3d" x="337.939453"/>
      <use xlink:href="#DejaVuSans-30" x="421.728516"/>
     </g>
    </g>
    <g id="line2d_86">
     <path d="M 562.4625 296.509688 
L 572.4625 296.509688 
L 582.4625 296.509688 
" style="fill: none; stroke: #35b779; stroke-width: 1.5; stroke-linecap: square"/>
    </g>
    <g id="text_17">
     <!-- d=7, p=0 -->
     <g transform="translate(590.4625 300.009688)scale(0.1 -0.1)">
      <defs>
       <path id="DejaVuSans-37" d="M 525 4666 
L 3525 4666 
L 3525 4397 
L 1831 0 
L 1172 0 
L 2766 4134 
L 525 4134 
L 525 4666 
z
" transform="scale(0.015625)"/>
      </defs>
      <use xlink:href="#DejaVuSans-64"/>
      <use xlink:href="#DejaVuSans-3d" x="63.476562"/>
      <use xlink:href="#DejaVuSans-37" x="147.265625"/>
      <use xlink:href="#DejaVuSans-2c" x="210.888672"/>
      <use xlink:href="#DejaVuSans-20" x="242.675781"/>
      <use xlink:href="#DejaVuSans-70" x="274.462891"/>
      <use xlink:href="#DejaVuSans-3d" x="337.939453"/>
      <use xlink:href="#DejaVuSans-30" x="421.728516"/>
     </g>
    </g>
    <g id="line2d_87">
     <path d="M 562.4625 311.187813 
L 572.4625 311.187813 
L 582.4625 311.187813 
" style="fill: none; stroke: #fde725; stroke-width: 1.5; stroke-linecap: square"/>
    </g>
    <g id="text_18">
     <!-- d=9, p=0 -->
     <g transform="translate(590.4625 314.687813)scale(0.1 -0.1)">
      <defs>
       <path id="DejaVuSans-39" d="M 703 97 
L 703 672 
Q 941 559 1184 500 
Q 1428 441 1663 441 
Q 2288 441 2617 861 
Q 2947 1281 2994 2138 
Q 2813 1869 2534 1725 
Q 2256 1581 1919 1581 
Q 1219 1581 811 2004 
Q 403 2428 403 3163 
Q 403 3881 828 4315 
Q 1253 4750 1959 4750 
Q 2769 4750 3195 4129 
Q 3622 3509 3622 2328 
Q 3622 1225 3098 567 
Q 2575 -91 1691 -91 
Q 1453 -91 1209 -44 
Q 966 3 703 97 
z
M 1959 2075 
Q 2384 2075 2632 2365 
Q 2881 2656 2881 3163 
Q 2881 3666 2632 3958 
Q 2384 4250 1959 4250 
Q 1534 4250 1286 3958 
Q 1038 3666 1038 3163 
Q 1038 2656 1286 2365 
Q 1534 2075 1959 2075 
z
" transform="scale(0.015625)"/>
      </defs>
      <use xlink:href="#DejaVuSans-64"/>
      <use xlink:href="#DejaVuSans-3d" x="63.476562"/>
      <use xlink:href="#DejaVuSans-39" x="147.265625"/>
      <use xlink:href="#DejaVuSans-2c" x="210.888672"/>
      <use xlink:href="#DejaVuSans-20" x="242.675781"/>
      <use xlink:href="#DejaVuSans-70" x="274.462891"/>
      <use xlink:href="#DejaVuSans-3d" x="337.939453"/>
      <use xlink:href="#DejaVuSans-30" x="421.728516"/>
     </g>
    </g>
    <g id="line2d_88">
     <path d="M 562.4625 325.865938 
L 572.4625 325.865938 
L 582.4625 325.865938 
" style="fill: none; stroke-dasharray: 5.55,2.4; stroke-dashoffset: 0; stroke: #440154; stroke-width: 1.5"/>
    </g>
    <g id="text_19">
     <!-- d=3, p=1 -->
     <g transform="translate(590.4625 329.365938)scale(0.1 -0.1)">
      <use xlink:href="#DejaVuSans-64"/>
      <use xlink:href="#DejaVuSans-3d" x="63.476562"/>
      <use xlink:href="#DejaVuSans-33" x="147.265625"/>
      <use xlink:href="#DejaVuSans-2c" x="210.888672"/>
      <use xlink:href="#DejaVuSans-20" x="242.675781"/>
      <use xlink:href="#DejaVuSans-70" x="274.462891"/>
      <use xlink:href="#DejaVuSans-3d" x="337.939453"/>
      <use xlink:href="#DejaVuSans-31" x="421.728516"/>
     </g>
    </g>
    <g id="line2d_89">
     <path d="M 562.4625 340.544062 
L 572.4625 340.544062 
L 582.4625 340.544062 
" style="fill: none; stroke-dasharray: 5.55,2.4; stroke-dashoffset: 0; stroke: #31688e; stroke-width: 1.5"/>
    </g>
    <g id="text_20">
     <!-- d=5, p=1 -->
     <g transform="translate(590.4625 344.044062)scale(0.1 -0.1)">
      <use xlink:href="#DejaVuSans-64"/>
      <use xlink:href="#DejaVuSans-3d" x="63.476562"/>
      <use xlink:href="#DejaVuSans-35" x="147.265625"/>
      <use xlink:href="#DejaVuSans-2c" x="210.888672"/>
      <use xlink:href="#DejaVuSans-20" x="242.675781"/>
      <use xlink:href="#DejaVuSans-70" x="274.462891"/>
      <use xlink:href="#DejaVuSans-3d" x="337.939453"/>
      <use xlink:href="#DejaVuSans-31" x="421.728516"/>
     </g>
    </g>
    <g id="line2d_90">
     <path d="M 562.4625 355.222188 
L 572.4625 355.222188 
L 582.4625 355.222188 
" style="fill: none; stroke-dasharray: 5.55,2.4; stroke-dashoffset: 0; stroke: #35b779; stroke-width: 1.5"/>
    </g>
    <g id="text_21">
     <!-- d=7, p=1 -->
     <g transform="translate(590.4625 358.722188)scale(0.1 -0.1)">
      <use xlink:href="#DejaVuSans-64"/>
      <use xlink:href="#DejaVuSans-3d" x="63.476562"/>
      <use xlink:href="#DejaVuSans-37" x="147.265625"/>
      <use xlink:href="#DejaVuSans-2c" x="210.888672"/>
      <use xlink:href="#DejaVuSans-20" x="242.675781"/>
      <use xlink:href="#DejaVuSans-70" x="274.462891"/>
      <use xlink:href="#DejaVuSans-3d" x="337.939453"/>
      <use xlink:href="#DejaVuSans-31" x="421.728516"/>
     </g>
    </g>
    <g id="line2d_91">
     <path d="M 562.4625 369.900313 
L 572.4625 369.900313 
L 582.4625 369.900313 
" style="fill: none; stroke-dasharray: 5.55,2.4; stroke-dashoffset: 0; stroke: #fde725; stroke-width: 1.5"/>
    </g>
    <g id="text_22">
     <!-- d=9, p=1 -->
     <g transform="translate(590.4625 373.400313)scale(0.1 -0.1)">
      <use xlink:href="#DejaVuSans-64"/>
      <use xlink:href="#DejaVuSans-3d" x="63.476562"/>
      <use xlink:href="#DejaVuSans-39" x="147.265625"/>
      <use xlink:href="#DejaVuSans-2c" x="210.888672"/>
      <use xlink:href="#DejaVuSans-20" x="242.675781"/>
      <use xlink:href="#DejaVuSans-70" x="274.462891"/>
      <use xlink:href="#DejaVuSans-3d" x="337.939453"/>
      <use xlink:href="#DejaVuSans-31" x="421.728516"/>
     </g>
    </g>
   </g>
  </g>
 </g>
 <defs>
  <clipPath id="pa327e8515a">
   <rect x="90" y="51.84" width="558" height="332.64"/>
  </clipPath>
 </defs>
</svg>
